<?xml version="1.0" encoding="utf-8"?>
<svg id="master-artboard" viewBox="0 0 1400 1400" version="1.1" xmlns="http://www.w3.org/2000/svg" x="0px" y="0px" width="1400px" height="1400px" enable-background="new 0 0 1400 1400">

<g id="XMLID_1412_" transform="matrix(1, 0, 0, 1, 0, 0)">
				<g id="XMLID_42_">
					<path id="XMLID_402_" fill="#735838" d="M1044.9,1316.7c-1.9,0-3.8-0.4-5.5-1.1c-16.3-6.8-25.9-14.4-28.4-22.7&#10;&#9;&#9;&#9;&#9;&#9;&#9;c-1.3-4.5-0.8-9.8,1.5-16.3c2.6-7.1,7.1-14.5,10.3-19.1c-15.9-20.1-15.8-22.2-15.8-24.8c0.2-4.6,7.8-24.5,28.8-33.5&#10;&#9;&#9;&#9;&#9;&#9;&#9;c2-0.8,4.1-1.3,6.2-1.3c2.7,0,5.4,0.7,7.7,2c15.5,8.6,26,26.1,30.4,34.4l107.1-1c4.2-8.4,14.6-26.4,30.2-35.2&#10;&#9;&#9;&#9;&#9;&#9;&#9;c2.3-1.3,4.9-2,7.5-2c1.9,0,3.8,0.4,5.5,1c21.6,8.5,29.7,28.5,29.9,33.1c0.1,2.6,0.2,4.7-15.2,25.1&#10;&#9;&#9;&#9;&#9;&#9;&#9;c6.1,8.6,15.5,24.2,12.4,35.2c-2.4,8.4-11.9,16.3-28.3,23.4c-1.8,0.8-3.6,1.2-5.5,1.2c-3.5,0-6.9-1.3-9.5-3.7l-26.1-24.3&#10;&#9;&#9;&#9;&#9;&#9;&#9;l-107.8,1l-25.4,24.6C1052.2,1315.3,1048.7,1316.7,1044.9,1316.7C1044.9,1316.7,1044.9,1316.7,1044.9,1316.7z"/>
				</g>
				<g id="XMLID_8_">
					<g id="XMLID_39_">
						<path fill="#735838" d="M1225,1203.6c0.9,0,1.9,0.2,2.8,0.5c19.1,7.5,25.1,25.2,25.1,26.5c0.1,2.3-17.2,24.7-17.2,24.7&#10;&#9;&#9;&#9;&#9;&#9;&#9;&#9;s17.7,22.3,14.6,33.2c-2.3,8.2-16.9,15.5-24,18.6c-0.8,0.4-1.7,0.5-2.5,0.5c-1.6,0-3.2-0.6-4.4-1.7l-28.3-26.4l-113.8,1.1&#10;&#9;&#9;&#9;&#9;&#9;&#9;&#9;l-27.6,26.7c-1.3,1.3-3,1.9-4.8,1.9c-0.9,0-1.8-0.2-2.7-0.5c-7.3-3-21.6-9.9-24.1-18c-0.9-3.1-0.2-7.3,1.4-11.6&#10;&#9;&#9;&#9;&#9;&#9;&#9;&#9;c3.9-10.5,12.6-21.9,12.6-21.9s-17.7-22.1-17.6-24.3c0-1.3,5.6-18.8,24.2-26.8c1.1-0.4,2.2-0.7,3.3-0.7c1.4,0,2.8,0.4,4.1,1.1&#10;&#9;&#9;&#9;&#9;&#9;&#9;&#9;c18.3,10.2,29.4,35.4,29.4,35.4l116.5-1.1c0,0,10.8-25.7,29.1-36.2C1222.4,1204,1223.7,1203.6,1225,1203.6 M1225,1188.6&#10;&#9;&#9;&#9;&#9;&#9;&#9;&#9;C1225,1188.6,1225,1188.6,1225,1188.6C1225,1188.6,1225,1188.6,1225,1188.6c-3.9,0-7.8,1-11.2,3c-15.1,8.6-25.5,24.2-31,34.3&#10;&#9;&#9;&#9;&#9;&#9;&#9;&#9;l-98.1,0.9c-5.6-9.8-16.2-25-31.2-33.4c-3.5-1.9-7.4-3-11.4-3c-3.2,0-6.3,0.6-9.2,1.9c-10.4,4.4-19.3,11.8-25.7,21.3&#10;&#9;&#9;&#9;&#9;&#9;&#9;&#9;c-3.7,5.5-7.5,13.4-7.7,18.7l0,0l0,0c-0.2,5.9,2.2,9.9,11.9,22.6c0.7,1,1.5,2,2.2,2.9c-2.8,4.6-6,10.3-8.1,16.1&#10;&#9;&#9;&#9;&#9;&#9;&#9;&#9;c-3,8.1-3.5,15-1.7,21.1c2.1,7.1,7.5,13.4,16.4,19.1c5.7,3.7,12,6.6,16.2,8.4c2.7,1.1,5.5,1.7,8.4,1.7&#10;&#9;&#9;&#9;&#9;&#9;&#9;&#9;c5.7,0,11.1-2.2,15.2-6.2l23.3-22.5l101.8-1l23.9,22.3c4,3.7,9.2,5.7,14.6,5.7c3,0,5.8-0.6,8.5-1.8c4.2-1.8,10.5-4.8,16.2-8.7&#10;&#9;&#9;&#9;&#9;&#9;&#9;&#9;c9-6,14.3-12.4,16.3-19.6c2.5-8.8,0.1-19.1-7.6-32.3c-1-1.6-1.9-3.2-2.9-4.7c0.7-1,1.4-1.9,2.2-2.9&#10;&#9;&#9;&#9;&#9;&#9;&#9;&#9;c9.4-12.8,11.7-16.9,11.4-22.8c-0.3-5.4-4.3-13.3-8.1-18.8c-6.7-9.5-15.8-16.7-26.5-20.9&#10;&#9;&#9;&#9;&#9;&#9;&#9;&#9;C1230.6,1189.1,1227.8,1188.6,1225,1188.6L1225,1188.6L1225,1188.6z"/>
					</g>
				</g>
			</g><g id="XMLID_1409_" transform="matrix(1, 0, 0, 1, 0, 0)">
					<path fill="#FFFFFF" d="M1019.6,1279.2c-1.6,4.3-2.3,8.4-1.4,11.6c2.4,8,16.8,14.9,24.1,18c2.5,1.1,5.5,0.5,7.5-1.4l27.6-26.7&#10;&#9;&#9;&#9;&#9;&#9;&#9;l113.8-1.1l28.3,26.4c1.9,1.7,4.6,2.2,6.9,1.2c7.1-3.1,21.7-10.4,24-18.6c3.1-10.9-14.6-33.2-14.6-33.2s17.3-22.4,17.2-24.7&#10;&#9;&#9;&#9;&#9;&#9;&#9;c-0.1-1.3-6-19-25.1-26.5c-2.2-0.8-4.6-0.7-6.6,0.5c-18.3,10.4-29.1,36.2-29.1,36.2l-116.5,1.1c0,0-11.1-25.2-29.4-35.4&#10;&#9;&#9;&#9;&#9;&#9;&#9;c-2.3-1.3-5-1.4-7.4-0.4c-18.6,7.9-24.2,25.5-24.2,26.8c-0.1,2.3,17.6,24.3,17.6,24.3S1023.5,1268.7,1019.6,1279.2z"/>
				</g><path fill="#C1C1C1" d="M1018.2,1290.7c2.4,8,16.8,14.9,24.1,18c2.5,1.1,5.5,0.5,7.5-1.4l27.6-26.7l113.8-1.1l28.3,26.4&#10;&#9;&#9;&#9;&#9;&#9;&#9;c1.9,1.7,4.6,2.2,6.9,1.2c7.1-3.1,21.7-10.4,24-18.6c3.1-10.9-14.6-33.2-14.6-33.2s2.3,26.9,0.3,30s-13.4,10.7-17.4,5.7&#10;&#9;&#9;&#9;&#9;&#9;&#9;c-4-4.9-18.1-28.7-18.1-28.7l-145.3,1.4l3,4.5c0,0-9.3,12.7-14.7,18.8c-5.4,6.1-11.4,0.4-17.9-2.9c-2-1-4.1-2.9-5.9-5.1&#10;&#9;&#9;&#9;&#9;&#9;&#9;C1018,1283.5,1017.3,1287.6,1018.2,1290.7z" transform="matrix(1, 0, 0, 1, 0, 0)"/><g id="XMLID_37_" transform="matrix(1, 0, 0, 1, 0, 0)">
			<g id="XMLID_38_">
				<path id="XMLID_401_" fill="#735838" d="M1196.8,1017.8c-4.3-4.3-7.8-9.7-8.3-15c-0.3-3.7,0.7-7.2,1.7-10.5&#10;&#9;&#9;&#9;&#9;&#9;c0.8-2.8,1.8-5.8,4-7.6c2.5-2.1,6-2.4,9.3-2.6c6.9-0.4,13.8-0.4,19.5-4.4c5.3-3.7,8.5-10.4,15.1-12.2c7.9-2.1,16.8,4.7,20,12.9&#10;&#9;&#9;&#9;&#9;&#9;c3.2,8.2,1.9,17.1-0.3,25.1c-0.9,3.2-1.9,6.3-3.3,9.2c-4.2,8.4-12.1,14.6-21.2,16.6c-8.8,2-19,0.2-27.4-4.5&#10;&#9;&#9;&#9;&#9;&#9;C1203,1023.1,1199.8,1020.7,1196.8,1017.8z"/>
			</g>
		</g><g id="XMLID_36_" transform="matrix(1, 0, 0, 1, 0, 0)">
				<path id="XMLID_400_" fill="#735838" d="M1187.6,982c0.5,3.3-0.4,6.7-3.6,9.4c-3.2,2.7-8.1,3.4-11.9,1.5&#10;&#9;&#9;&#9;&#9;&#9;c-5.6-2.8-8.1-7.9-7.2-13.9c0.3-2.3,1.1-4.6,2.5-6.5c1.4-1.9,3.6-3.3,5.9-3.4c1.7-0.1,3.4,0.4,4.9,1.1&#10;&#9;&#9;&#9;&#9;&#9;C1182.8,972.5,1186.8,977.2,1187.6,982z"/>
			</g><g id="XMLID_34_" transform="matrix(1, 0, 0, 1, 0, 0)">
				<path id="XMLID_399_" fill="#735838" d="M1206.1,953c-1.4-3.1-4.1-5.6-7.1-7.1c-1.3-0.6-2.6-1.1-4-1.2&#10;&#9;&#9;&#9;&#9;&#9;c-12.6-0.7-14.1,22.7-3.1,25.1c3.3,0.7,6.8,0,9.6-1.9C1206,964.8,1208.4,958.2,1206.1,953z"/>
			</g><g id="XMLID_32_" transform="matrix(1, 0, 0, 1, 0, 0)">
				<path id="XMLID_398_" fill="#735838" d="M1218.3,935.4c7.5-3,15.4,3.6,14.9,11.2c-0.3,4.3-3.2,8.4-7.2,9.9&#10;&#9;&#9;&#9;&#9;&#9;C1212.3,961.5,1206.6,940.2,1218.3,935.4z"/>
			</g><g id="XMLID_24_" transform="matrix(1, 0, 0, 1, 0, 0)">
				<path id="XMLID_397_" fill="#735838" d="M1247.1,941.7c7.5-3,15.4,3.6,14.9,11.2c-0.3,4.3-3.2,8.4-7.2,9.9&#10;&#9;&#9;&#9;&#9;&#9;C1241.1,967.7,1235.4,946.4,1247.1,941.7z"/>
			</g><path id="XMLID_297_" fill="#FFFFFF" d="M595.9,1133.2c-10.7-19.5-27.3-37.5-36.2-46.5c-5.8-5.8-11.5-11.1-16.7-15.3&#10;&#9;&#9;&#9;c-0.5-4.3-1.1-9-1.7-14.4c-0.5-3.7-1.4-9.4-2.9-17c0-0.1-0.1-0.3-0.1-0.4c-0.9-5-2-10.4-3.2-16.2c17.6-8.8,28.3-17.2,29.8-18.5&#10;&#9;&#9;&#9;c6.4-5.2,10.4-12.8,11-21c0-0.1,0.2-2.6,0.4-6.8c0.2-3.4,0.4-7.5,0.6-11.9l0-0.1c0.1-2.7,0.2-5.5,0.3-8.2c0-1.3,0.1-2.6,0.1-4&#10;&#9;&#9;&#9;c0.1-2.5,0.1-5,0.1-7.5c0-1.5,0-3.1,0-4.7c0-0.1,0-0.2,0-0.3c0-3.6,0-7.3-0.1-10.9c-0.1-4.4-0.2-8.7-0.3-12.8&#10;&#9;&#9;&#9;c0-1.1-0.1-2.3-0.1-3.4c5.4-6.5,12.8-15.8,20.1-26.4c21.2-30.8,30.4-56,28-76.9c-0.9-8-5-15.2-11.3-20.2&#10;&#9;&#9;&#9;c-5.3-4.2-11.8-6.4-18.5-6.4c-1.2,0-2.5,0.1-3.7,0.2c-30.1,3.8-59.5,10.3-77.3,15c-1.5-0.9-3-1.7-4.6-2.5c-4.7-2.5-9.6-5-14.6-7.3&#10;&#9;&#9;&#9;c-2.2-1-4.7-2.1-7.4-3.3c-1.4-0.6-2.9-1.2-4.6-1.9c-5.5-2.2-11-4.2-16.4-6c-1.9-0.6-3.8-1.2-5.7-1.8c-9.8-16.5-26-41.5-43.7-64.1&#10;&#9;&#9;&#9;c-4.9-6.3-12.2-10.4-20.2-11.3c-1.2-0.1-2.3-0.2-3.5-0.2c-6.8,0-13.4,2.3-18.7,6.6c-14.9,11.9-25.4,32.7-32.3,63.7&#10;&#9;&#9;&#9;c-3,13.6-4.8,27-5.9,37.5c-2.5,2.1-5,4.3-7.6,6.5c-2.7,2.4-5.5,4.9-8.2,7.3c-3.3,3.1-6.8,6.3-10.2,9.6c-0.8,0.8-1.6,1.5-2.4,2.3&#10;&#9;&#9;&#9;c-2.6,2.5-5.1,5-7.4,7.3c-0.3,0.3-0.7,0.7-1,1c-2.2,2.2-4,4-5.5,5.6c-2.2,2.2-4.2,4.3-5.9,6c-5.1-6.8-8.4-11.7-10.6-15.4&#10;&#9;&#9;&#9;c-11.7-19.7-30.4-31-51.2-31h0c-19.9,0-38.7,10.6-50.5,28.2c-14.5,21.9-16.1,50.5-4.3,78.6c4.3,10.3,14,17.4,25.2,18.3&#10;&#9;&#9;&#9;c5.1,0.4,9.8,0.6,14,0.6c0.2,0,0.5,0,0.7,0c15.6,23.6,35.4,56.3,48.8,85.2c-5.1,1.1-10.1,2.5-15,4.3c-4.9,1.8-9.7,3.9-14.2,6.4&#10;&#9;&#9;&#9;c-25.5,13.8-40.8,35.8-39.9,57.3c0.7,16.4,10.5,30.2,26.1,37.1c7.1,3.1,14.3,4.7,21.5,4.7c7.2,0,13.4-1.5,18.7-3.5&#10;&#9;&#9;&#9;c-1.8,2.9-3.5,5.7-5.1,8.6c-7.4,13.4-8.8,31.1-4.4,55.9c2.7,15,7.5,33.2,14.5,53.8c2.3,6.9,4.7,13.6,7.1,19.9&#10;&#9;&#9;&#9;c-3.4,2.1-6.5,4.7-9.3,7.7c-9.5,10.6-13.4,25-11.5,42.7c1.6,15.2,14.5,26.8,29.8,26.8h109.9l88.4,0l0.1,0l0.3,0l1.1,0h4.4h55h31.4&#10;&#9;&#9;&#9;c15.3,0,28.2-11.6,29.8-26.8c1.9-17.7-1.9-32.1-11.5-42.7c-2.7-3-5.8-5.6-9.3-7.7c4.6-12.4,9.5-26.6,13.7-40.9&#10;&#9;&#9;&#9;C605,1178.9,606,1151.6,595.9,1133.2z" transform="matrix(1, 0, 0, 1, 0, 0)"/><g id="XMLID_22_" transform="matrix(1, 0, 0, 1, 0, 0)">
			<path fill="#735838" d="M279,1317.5c-3.8,0-7-2.9-7.5-6.7c-1.2-11.1,0.8-19.6,5.8-25.3c2.9-3.3,8.4-7.2,17.9-7.2&#10;&#9;&#9;&#9;&#9;c1.7,0,3.4,0.1,5,0.3c-4.4-10.7-10.5-26.3-16.1-43c-15.9-47.1-19.7-77.1-11.7-91.6c5.1-9.3,11.9-18.7,21.2-29.4&#10;&#9;&#9;&#9;&#9;c0.7-0.8,1.3-1.5,1.9-2.2c2.3-2.7,4.3-5,6.4-6.9c-0.2-3.3-0.3-6.7-0.5-10.1c-2.3-1.2-4.5-2.1-6.6-2.8c-0.9-0.3-1.8-0.5-2.6-0.7&#10;&#9;&#9;&#9;&#9;c-3.4-0.9-6.6-1.3-9.6-1.3l-0.2,0c-8.8,0-15,3.6-21.7,7.5c-6.5,3.8-13.1,7.6-21.7,7.6c-4.1,0-8.2-0.9-12.5-2.8&#10;&#9;&#9;&#9;&#9;c-7.7-3.4-12.3-9.7-12.7-17.4c-0.5-12.7,10.5-27.1,28.2-36.6c3.5-1.9,7.3-3.6,11.1-5c9.5-3.5,19.6-5.2,29.9-5.2&#10;&#9;&#9;&#9;&#9;c0.9,0,1.9,0,2.8,0c2.3,0.1,4.7,0.3,7.1,0.8c-14.5-46.6-57.6-111.5-70-129.8c-3.9,0.9-8.3,1-12,1c-3.6,0-7.7-0.2-12.2-0.6&#10;&#9;&#9;&#9;&#9;c-2.8-0.2-5.2-2-6.3-4.6c-8.8-21-8-41.9,2.3-57.4c7.6-11.4,19.5-18.2,31.8-18.2c12.7,0,24.3,7.3,31.9,20&#10;&#9;&#9;&#9;&#9;c7.3,12.3,21.3,30.2,40.8,52.1c-3.1-10.5-4.3-17.4-4.4-18c-0.4-2.3,0.3-4.6,1.9-6.3c0,0,1.3-1.5,3.7-4c2.1-2.3,5.6-5.9,9.9-10.3&#10;&#9;&#9;&#9;&#9;c1.7-1.7,3.5-3.5,5.4-5.4l0.9-0.9c2.3-2.3,4.7-4.7,7.3-7.1c0.7-0.7,1.5-1.4,2.2-2.2c3.3-3.2,6.7-6.3,9.9-9.3&#10;&#9;&#9;&#9;&#9;c2.6-2.4,5.2-4.7,7.8-7c4.9-4.3,9.7-8.3,14.3-12c1.9-25.1,8.6-77.4,30.7-95c1.3-1.1,3-1.6,4.7-1.6c0.3,0,0.6,0,0.9,0.1&#10;&#9;&#9;&#9;&#9;c2,0.2,3.8,1.3,5,2.8c22.2,28.5,40,57.8,46.6,69.6c0.7,0.2,1.4,0.3,2.1,0.5c3.7,0.9,7.6,2.1,11.5,3.3c4.9,1.6,9.9,3.4,14.9,5.4&#10;&#9;&#9;&#9;&#9;c1.4,0.6,2.8,1.1,4.2,1.7c2.6,1.1,4.8,2.1,6.8,3c4.6,2.1,9.1,4.4,13.3,6.7c3.6,1.9,7,3.9,10.3,5.9c0.6,0.3,1.1,0.7,1.7,1.1&#10;&#9;&#9;&#9;&#9;c13.2-3.8,47.7-12.4,83.4-16.9c0.3,0,0.6-0.1,0.9-0.1c1.7,0,3.3,0.6,4.6,1.6c1.6,1.2,2.6,3.1,2.8,5c3.7,31.9-38.4,81.4-48.7,93&#10;&#9;&#9;&#9;&#9;c0.3,3.9,0.5,7.9,0.6,12c0.2,3.9,0.3,8,0.3,12.2c0,3.5,0.1,7,0,10.5c0,0.1,0,0.1,0,0.2c0,1.6,0,3.2,0,4.7c0,2.5-0.1,4.8-0.1,7.2&#10;&#9;&#9;&#9;&#9;c0,1.3-0.1,2.6-0.1,3.9c-0.1,2.8-0.2,5.5-0.3,8c-0.2,4.3-0.4,8.2-0.6,11.5c-0.2,4-0.4,6.4-0.4,6.4c-0.2,2.1-1.2,4-2.8,5.3&#10;&#9;&#9;&#9;&#9;c-0.7,0.5-16.1,12.9-41.5,22.8c2.6,11.9,5.1,23.8,7,33.7c0,0.1,0,0.1,0,0.2c0.9,4.9,2.1,11.6,2.7,15.6c0.7,5.5,1.3,10.3,1.8,14.6&#10;&#9;&#9;&#9;&#9;c0.3,2.8,0.6,5.8,1,9.1c6.6,4,15.2,12,22,19c8.1,8.1,23.1,24.4,32.5,41.5c6.8,12.4,5.1,35.8-5.4,71.6&#10;&#9;&#9;&#9;&#9;c-7,24.2-16.4,48.3-22.5,63.1c1.6-0.2,3.3-0.3,5-0.3c9.5,0,14.9,3.9,17.9,7.2c5.1,5.6,7,14.1,5.8,25.3c-0.4,3.8-3.6,6.7-7.5,6.7&#10;&#9;&#9;&#9;&#9;H279z"/>
		</g><path fill="#735838" d="M393.6,730.4c23,29.4,42,61.1,47.5,71.5c1.7,0.4,3.5,0.8,5.2,1.3c3.7,0.9,7.4,2,11.1,3.2&#10;&#9;&#9;&#9;&#9;c4.8,1.5,9.6,3.3,14.4,5.2c1.3,0.5,2.7,1.1,4,1.7c2.2,0.9,4.4,1.9,6.6,2.9c4.4,2,8.7,4.2,12.9,6.4c3.4,1.8,6.7,3.8,9.9,5.7&#10;&#9;&#9;&#9;&#9;c1.5,0.9,3,1.9,4.5,2.9c9.4-3.1,46.8-12.8,85.5-17.6c3.6,31.9-48.5,89.1-48.5,89.1l-0.5-0.3c0.4,5.2,0.7,10.5,0.9,15.8&#10;&#9;&#9;&#9;&#9;c0.2,4.1,0.3,8.1,0.3,12c0,3.5,0.1,7,0,10.3l0,0c0,1.6,0,3.2,0,4.8c0,2.4-0.1,4.8-0.1,7.1c0,1.3-0.1,2.6-0.1,3.8&#10;&#9;&#9;&#9;&#9;c-0.1,2.8-0.2,5.5-0.3,7.9c-0.2,4.5-0.4,8.4-0.6,11.3c-0.2,4-0.4,6.3-0.4,6.3s-16.5,13.4-43.5,23.2c-0.7,0.2-1.3,0.5-2,0.7&#10;&#9;&#9;&#9;&#9;c3.3,14.6,6.3,29.2,8.4,40.1c0,0,0,0,0,0c1.3,6.7,2.2,12.1,2.6,15.1c0.6,4.8,1.2,9.6,1.7,14.5c0.5,4.4,0.9,8.8,1.4,13.2&#10;&#9;&#9;&#9;&#9;c5.4,0.6,39.7,31.4,55,59.2c6.7,12.1,1.9,38.8-6,65.8c-11.1,38-28.3,76.7-28.3,76.7s9.1-4.3,18-4.3c9.3,0,18.3,4.7,16.2,24.1&#10;&#9;&#9;&#9;&#9;c-11.1,0-21.7,0-31.4,0c-25.7,0-45.6,0-55,0c-3.8,0-5.9,0-5.9,0v0h-88.4c0,0,0,0,0,0c0,0-57.1,0-109.9,0&#10;&#9;&#9;&#9;&#9;c-2.1-19.4,6.9-24.1,16.2-24.1c8.9,0,18,4.3,18,4.3s-11.7-26.3-22-56.9c-11.1-32.8-20.6-70.5-12.2-85.6&#10;&#9;&#9;&#9;&#9;c5.6-10.1,12.7-19.4,20.3-28.1c4.3-5,7.2-8.7,10.3-10.4c-0.3-6.1-0.6-12.2-1-18.2c-3.8-2.4-7.6-4.3-11.6-5.5c-1-0.3-2-0.6-3-0.9&#10;&#9;&#9;&#9;&#9;c-4.2-1.1-7.9-1.5-11.4-1.6c-0.1,0-0.1,0-0.2,0c-19.9,0-29.1,15.1-43.4,15.1c-2.9,0-6-0.6-9.5-2.1c-16.4-7.2-6.7-28.2,16.1-40.6&#10;&#9;&#9;&#9;&#9;c3.1-1.7,6.5-3.2,10.1-4.5c8.1-3,17.4-4.8,27.3-4.8c0.9,0,1.7,0,2.6,0c6,0.2,12.1,1.9,18.1,4.8c-0.3-1.6-0.7-3.2-1.1-4.8&#10;&#9;&#9;&#9;&#9;c-0.4-1.7-0.9-3.5-1.4-5.3c-15.1-52.8-68.8-130.7-75-139.6c-0.4-0.5-0.6-0.9-0.6-0.9s-1.2,2.9-14.7,2.9c-3.1,0-6.9-0.2-11.5-0.5&#10;&#9;&#9;&#9;&#9;c-15.8-37.5,5.3-65.2,27.2-65.2c9.3,0,18.7,5,25.4,16.3c10.5,17.7,31.5,42.3,51,63.7c1.1,1.2,2.2,2.4,3.2,3.5c0,0,0,0,0,0&#10;&#9;&#9;&#9;&#9;c5.4,5.9,10.7,11.5,15.5,16.5c-15.2-28.8-19.5-54.7-19.5-54.7s1.3-1.4,3.7-4c2.3-2.5,5.7-6,9.8-10.2c1.7-1.7,3.4-3.5,5.3-5.4&#10;&#9;&#9;&#9;&#9;c0.3-0.3,0.6-0.6,0.9-0.9c2.3-2.2,4.7-4.6,7.2-7c0.7-0.7,1.5-1.4,2.2-2.1c3.1-3,6.4-6.1,9.8-9.1c2.5-2.3,5.1-4.6,7.7-6.9&#10;&#9;&#9;&#9;&#9;c5.4-4.8,11-9.4,16.6-13.8C366.6,806.8,372.1,747.6,393.6,730.4 M503.6,1047.1c-2.2,0.6-4.4,1.1-6.6,1.6&#10;&#9;&#9;&#9;&#9;C499.3,1048.2,501.5,1047.6,503.6,1047.1c1.4-0.4,2.8-0.8,4.2-1.1C506.5,1046.3,505.1,1046.7,503.6,1047.1 M430.8,1187.8&#10;&#9;&#9;&#9;&#9;c-14-21.4-30.9-39.3-50.7-55c5.1,4,10,8.4,14.8,12.9C408.1,1158.3,420.1,1172.6,430.8,1187.8 M393.6,715.4&#10;&#9;&#9;&#9;&#9;c-3.4,0-6.7,1.1-9.4,3.3c-12.1,9.7-20.9,27.7-27,55.2c-3.5,15.8-5.3,31.3-6.2,41.9c-3.9,3.2-7.9,6.6-12,10.2&#10;&#9;&#9;&#9;&#9;c-2.6,2.3-5.3,4.7-7.9,7.1c-3.3,3-6.7,6.2-10,9.4c-0.8,0.8-1.5,1.5-2.3,2.2c-2.5,2.5-5,4.9-7.3,7.2c-0.3,0.3-0.7,0.6-1,1&#10;&#9;&#9;&#9;&#9;c-2.2,2.2-3.9,3.9-5.4,5.5c-4.4,4.4-7.8,8.1-10,10.4c-2.4,2.6-3.8,4.1-3.8,4.1c-1.3,1.4-2.3,3.1-3,4.9&#10;&#9;&#9;&#9;&#9;c-10.5-12.8-18.4-23.4-23.2-31.6c-8.9-15-22.9-23.7-38.3-23.7c-14.8,0-29,8.1-38,21.6c-11.7,17.6-12.8,41.1-3,64.4&#10;&#9;&#9;&#9;&#9;c2.2,5.2,7,8.7,12.6,9.1c4.7,0.4,9,0.6,12.8,0.6c2,0,5.1,0,8.5-0.4c19.6,29.1,48.7,76.6,62.7,113.3c-10.8,0.1-21.4,2-31.5,5.7&#10;&#9;&#9;&#9;&#9;c-4.2,1.5-8.3,3.4-12.1,5.4c-9.1,4.9-16.9,11.2-22.5,18.3c-6.6,8.2-9.9,16.9-9.5,25.3c0.4,10.7,6.7,19.4,17.2,24&#10;&#9;&#9;&#9;&#9;c5.2,2.3,10.4,3.4,15.5,3.4c10.6,0,18.5-4.6,25.5-8.7c6.2-3.6,11.1-6.5,17.9-6.5l0.1,0c2.4,0,5,0.4,7.7,1.1c0,0,0,0,0.1,0&#10;&#9;&#9;&#9;&#9;c0.7,0.2,1.4,0.4,2.2,0.6c0.6,0.2,1.1,0.4,1.7,0.6c0,0.8,0.1,1.5,0.1,2.2c-1.5,1.6-2.9,3.2-4.5,5c-0.6,0.7-1.2,1.4-1.9,2.1&#10;&#9;&#9;&#9;&#9;c-9.7,11.2-16.8,20.9-22.2,30.7c-5.8,10.5-11,32.1,11.2,97.7c4.1,12.2,8.5,23.8,12.2,33.3c-8.7,1.4-14.2,5.6-17.4,9.2&#10;&#9;&#9;&#9;&#9;c-6.6,7.3-9.1,17.8-7.7,31.1c0.8,7.6,7.3,13.4,14.9,13.4h109.9l88.4,0v0c0.1,0,0.3,0,0.4,0l1.1,0l4.4,0h55h31.4&#10;&#9;&#9;&#9;&#9;c7.7,0,14.1-5.8,14.9-13.4c1.4-13.3-1.2-23.8-7.7-31.1c-3.3-3.6-8.8-7.8-17.4-9.2c5.8-14.7,12.9-34.2,18.6-53.6&#10;&#9;&#9;&#9;&#9;c14.7-50.3,9.7-68.2,4.7-77.3c-9.9-17.9-25.4-34.7-33.7-43.1c-8.9-9-15.5-14.6-20.3-18c-0.2-2-0.4-3.9-0.6-5.7&#10;&#9;&#9;&#9;&#9;c-0.5-4.4-1.1-9.2-1.8-14.7c-0.4-3.4-1.4-8.8-2.7-16.1c0-0.1,0-0.2-0.1-0.3c-1.6-8.2-3.5-17.9-5.7-27.7&#10;&#9;&#9;&#9;&#9;c22.9-9.8,36.9-21,37.5-21.6c3.2-2.6,5.2-6.4,5.5-10.5c0-0.1,0.2-2.5,0.4-6.5c0.2-3.3,0.4-7.3,0.6-11.6c0.1-2.7,0.2-5.4,0.3-8.1&#10;&#9;&#9;&#9;&#9;c0-1.2,0.1-2.6,0.1-3.9c0.1-2.5,0.1-4.9,0.1-7.3c0-1.5,0-3.1,0-4.7c0-0.1,0-0.2,0-0.2c0-3.5,0-7.1,0-10.6&#10;&#9;&#9;&#9;&#9;c-0.1-4.3-0.2-8.5-0.3-12.4c-0.1-3.1-0.3-6.2-0.5-9.2c5-5.8,14.1-16.8,23-29.8c19.1-27.7,27.4-49.5,25.5-66.7&#10;&#9;&#9;&#9;&#9;c-0.5-4-2.5-7.6-5.6-10.1c-2.7-2.1-5.9-3.2-9.3-3.2c-0.6,0-1.2,0-1.9,0.1c-33.5,4.2-66,12-81.3,16.2c-3.1-1.9-6.3-3.7-9.6-5.5&#10;&#9;&#9;&#9;&#9;c-4.4-2.4-9-4.7-13.7-6.9c-2.1-1-4.4-2-7-3.1c-1.4-0.6-2.8-1.2-4.3-1.8c-5.2-2.1-10.3-4-15.4-5.6c-3.8-1.2-7.5-2.3-11-3.2&#10;&#9;&#9;&#9;&#9;c-7.7-13.4-24.7-41-45.6-67.7c-2.5-3.2-6.1-5.2-10.1-5.7C394.7,715.4,394.2,715.4,393.6,715.4L393.6,715.4z" transform="matrix(1, 0, 0, 1, 0, 0)"/><g id="XMLID_2012_" transform="matrix(1, 0, 0, 1, 0, 0)">
			<g id="XMLID_613_">
				<path fill="#DDDDDD" d="M371.2,1237.8c-0.7,0.9-1.5,1.8-2.3,2.7c-15,15-38.4,23.4-58,10.3c-7.6-4.9-13.9-10.9-19.6-17.5&#10;&#9;&#9;&#9;&#9;&#9;c10.3,30.6,22,56.9,22,56.9S275,1272.1,279,1310c52.7,0,109.9,0,109.9,0C383,1285.9,377.1,1261.9,371.2,1237.8z"/>
			</g>
			<g id="XMLID_631_">
				<path fill="#FF9D00" d="M310.9,1250.8c19.6,13.1,43,4.7,58-10.3c0.8-0.9,1.6-1.8,2.3-2.7c-0.6-2.6-1.3-5.1-1.9-7.7&#10;&#9;&#9;&#9;&#9;&#9;c-9.5-38.7-11.4-90.8-45.3-116.9c-1.1-0.9-2.2-1.6-3.2-2.2c-9.8-6.3-12.9-1.2-21.5,8.7c-7.6,8.7-14.7,18-20.3,28.1&#10;&#9;&#9;&#9;&#9;&#9;c-8.3,15.1,1.2,52.8,12.2,85.6C297,1239.9,303.3,1245.9,310.9,1250.8z"/>
			</g>
			<g id="XMLID_2075_">
				<path fill="#FFB300" d="M383.9,1145.8l-23.8,13.6c0,0-27-62.7-63-74c-1-0.3-2-0.6-3-0.9c-4.2-1.1-7.9-1.5-11.4-1.6&#10;&#9;&#9;&#9;&#9;&#9;c-24.2-0.1-32.5,22-53.1,13c-16.4-7.2-6.7-28.2,16.1-40.6c3.1-1.7,6.5-3.2,10.1-4.5c8.8-3.2,19-5.1,29.9-4.7&#10;&#9;&#9;&#9;&#9;&#9;c7.6,0.2,15.3,2.9,22.9,7.3c2.6,1.5,5.2,3.2,7.8,5.1C352.9,1085.3,383.9,1145.8,383.9,1145.8z"/>
			</g>
			<g id="XMLID_633_">
				<path fill="#FF9D00" d="M556.9,1214.3c2.3-0.1,4.5-0.4,6.7-0.8c7.9-27,12.7-53.7,6-65.8c-16.1-29.2-53.1-61.6-55.6-59.1&#10;&#9;&#9;&#9;&#9;&#9;l-13.8,83.5C510.6,1196.6,529.3,1215.3,556.9,1214.3z"/>
			</g>
			<g id="XMLID_634_">
				<path fill="#DDDDDD" d="M556.9,1214.3c-27.6,1-46.4-17.7-56.8-42.2L477.3,1310c0,0,39.6,0,92.3,0c4.1-37.9-34.3-19.8-34.3-19.8&#10;&#9;&#9;&#9;&#9;&#9;s17.2-38.7,28.3-76.7C561.5,1213.9,559.2,1214.1,556.9,1214.3z"/>
			</g>
			<g id="XMLID_1088_">
				<path fill="#FF9D00" d="M508.9,1045.6c-5.4-28.2-17.1-80.9-23.3-94.9c-9.9-0.8-19.1-1.4-27.7-1.9c8.1,33.6,9.5,68.5,12.3,103.6&#10;&#9;&#9;&#9;&#9;&#9;c9-0.6,18-1.9,26.9-3.7C501.1,1047.8,505,1046.7,508.9,1045.6z"/>
			</g>
			<g id="XMLID_1116_">
				<path fill="#DDDDDD" d="M349.8,951.7c-0.7,0.3-2,4.1-3.8,10.7l0,0c0,0-18.5-18.4-39.7-41.4c8.3,30.3,21.2,59.1,41,84.6&#10;&#9;&#9;&#9;&#9;&#9;c29.8,36.8,76.5,50,122.8,46.7c-2.8-35.1-4.3-70-12.3-103.6C376.1,944.1,349.8,951.7,349.8,951.7z"/>
			</g>
			<g id="XMLID_1047_">
				<path fill="#DDDDDD" d="M491.9,1310H361.1c-1.3-2.9-2.5-5.9-3.9-9c-2.5-5.7-5-11.8-7.5-18.2c-7.9-19.6-15.9-41.2-21.9-59.1&#10;&#9;&#9;&#9;&#9;&#9;c-7.7-23-11.6-47.2-14.9-71.4c-4.8-35.1-1.9-71.8-10.3-106.2c-0.4-1.7-0.9-3.5-1.4-5.3c19.5,34.9,46.3,65.6,78.8,92.1&#10;&#9;&#9;&#9;&#9;&#9;c5.1,4,10,8.4,14.8,12.9c29.1,27.7,52.4,64.2,69.8,99.6c6.6,13.5,26.5,40.8,28.5,55.6C493.7,1304.6,493.1,1307.5,491.9,1310z"/>
			</g>
			<g id="XMLID_2115_">
				<g id="XMLID_2069_">
					<path fill="#FFB300" d="M442.7,805.4c0.4-0.9-21.6-39.6-49.2-75c-25.1,20.1-28.4,97.4-28.4,97.4L442.7,805.4z"/>
				</g>
				<g id="XMLID_2068_">
					<path fill="#FFDE7C" d="M365.2,827.8c0,0,9.4-55.8,23.9-72.7c20.2,29.8,23.5,81.6,23.5,81.6L365.2,827.8z"/>
				</g>
				<g id="XMLID_2067_">
					<path fill="#FFB300" d="M507.5,832.1c0.4-0.9,43.2-12.9,87.7-18.5c3.6,31.9-48.5,89.1-48.5,89.1L507.5,832.1z"/>
				</g>
				<g id="XMLID_2066_">
					<path fill="#FFDE7C" d="M546.7,902.6c0,0,32.7-46.2,34.3-68.5c-35.4,6.9-74.2,41.3-74.2,41.3L546.7,902.6z"/>
				</g>
				<g id="XMLID_608_">
					<path fill="#FFB300" d="M443.7,915.8c6.7,36.9,28.8,68.4,58.8,89c27-9.8,43.5-23.2,43.5-23.2s0.2-2.3,0.4-6.3&#10;&#9;&#9;&#9;&#9;&#9;&#9;c0.2-2.9,0.4-6.8,0.6-11.3c0.1-2.5,0.2-5.1,0.3-7.9c0-1.3,0.1-2.5,0.1-3.8c0.1-2.3,0.1-4.6,0.1-7.1c0-1.6,0-3.2,0-4.8l0,0&#10;&#9;&#9;&#9;&#9;&#9;&#9;c0-3.4,0-6.8,0-10.3c-0.1-3.9-0.2-8-0.3-12c-1-26.9-4.6-54.8-14-66.8c-6-7.6-15.9-15.6-27.8-22.9c-3.2-2-6.5-3.9-9.9-5.7&#10;&#9;&#9;&#9;&#9;&#9;&#9;c-4.2-2.3-8.5-4.4-12.9-6.4c-2.2-1-4.4-2-6.6-2.9C448.8,838.2,437.1,879.3,443.7,915.8z"/>
				</g>
				<g id="XMLID_610_">
					<path fill="#FFFFFF" d="M443.7,915.8c-6.6-36.5,5.1-77.7,32.1-102.6c-1.3-0.6-2.7-1.1-4-1.7c-4.8-1.9-9.6-3.7-14.4-5.2&#10;&#9;&#9;&#9;&#9;&#9;&#9;c-3.7-1.2-7.4-2.3-11.1-3.2c-14.2-3.6-27.6-5.1-38.2-3.4c-15.9,2.6-38.9,19.5-59.3,37.5c-2.6,2.3-5.2,4.6-7.7,6.9&#10;&#9;&#9;&#9;&#9;&#9;&#9;c-3.4,3.1-6.7,6.2-9.8,9.1c-0.7,0.7-1.5,1.4-2.2,2.1c-2.5,2.4-4.9,4.8-7.2,7c-0.3,0.3-0.6,0.6-0.9,0.9&#10;&#9;&#9;&#9;&#9;&#9;&#9;c-1.9,1.9-3.7,3.7-5.3,5.4c-4.1,4.2-7.4,7.7-9.8,10.2c-2.4,2.5-3.7,4-3.7,4s16.3,98.7,98,124.7c40.2,12.8,76.1,6.7,102.2-2.7&#10;&#9;&#9;&#9;&#9;&#9;&#9;C472.5,984.2,450.4,952.7,443.7,915.8z"/>
				</g>
				<g id="XMLID_2062_">
					<path fill="#735838" d="M424.5,931.4c-9.1-8.1-9.4-15.2-9.4-15.2c6.6-2.4,20.6,1.2,26.7,12.1&#10;&#9;&#9;&#9;&#9;&#9;&#9;C433.8,932,430.9,932.5,424.5,931.4z"/>
				</g>
				<g id="XMLID_2046_">
					<g id="XMLID_2049_">
						<path fill="#735838" d="M425.4,944.8c0,0.1-0.1,0.2-0.1,0.2c-4.7,0.7-9.3-1-12.7-4.3c-0.8-0.8-1.6-1.7-2.3-2.7&#10;&#9;&#9;&#9;&#9;&#9;&#9;&#9;c-0.2-0.3-0.4-0.5-0.7-0.6c1-0.2,2.1-0.4,3.1-0.8c5.1-1.9,9.1-5.8,11.3-10.8c0.8-1.8,3.4-0.7,2.8,1.2c-0.1,0.3-0.2,0.7-0.4,1&#10;&#9;&#9;&#9;&#9;&#9;&#9;&#9;c0-1.2-1.8-1.8-2.5-0.5c-1.2,2.3-1.8,4.8-1.8,7.4C422.1,938.5,423.2,942,425.4,944.8z"/>
					</g>
					<g id="XMLID_2048_">
						<path fill="#735838" d="M410.3,938.1c0.7,1,1.4,1.9,2.3,2.7c-0.7,0.2-1.4,0.4-2.1,0.5c-0.7,0.1-1.5,0.2-2.3,0.2&#10;&#9;&#9;&#9;&#9;&#9;&#9;&#9;c-6.1,0.2-13.8-3-12.4-10.2c0.2-1.2,2.3-1.8,2.7-0.4c1.4,4.9,5.3,6.9,9.6,6.7c0.5,0,1.1-0.1,1.6-0.2&#10;&#9;&#9;&#9;&#9;&#9;&#9;&#9;C409.9,937.6,410.1,937.8,410.3,938.1z"/>
					</g>
					<g id="XMLID_2047_">
						<path fill="#544130" d="M426.4,928c-1,2.6-2.5,4.9-4.3,6.9c0-2.5,0.6-5.1,1.8-7.4C424.6,926.3,426.5,926.8,426.4,928z"/>
					</g>
				</g>
				<g id="XMLID_2044_">
					<g id="XMLID_2045_">
						<path fill="#735838" d="M445.6,948.6c-4.5,3.7-11.6,2.7-16.5-0.4c-0.4-0.2-0.7-0.5-1-0.7c-0.5-0.3-0.9-0.7-1.3-1.1&#10;&#9;&#9;&#9;&#9;&#9;&#9;&#9;c-0.4-0.4-0.8-0.9-1.2-1.3c-0.1-0.1-0.1-0.1-0.2-0.2c-2.2-2.8-3.3-6.4-3.3-9.9c0-2.5,0.6-5.1,1.8-7.4c0.7-1.3,2.5-0.7,2.5,0.5&#10;&#9;&#9;&#9;&#9;&#9;&#9;&#9;c0,0.2,0,0.3-0.1,0.5c-2.2,5.4-1.3,11.9,3.3,15.8c4.6,3.9,9.6,2.9,14.9,1.8C445.9,945.9,446.5,947.7,445.6,948.6z"/>
					</g>
				</g>
				<g id="XMLID_2042_">
					<g id="XMLID_2043_">
						<path fill="#735838" d="M429.5,948c-0.2,0.1-0.3,0.1-0.5,0.1c-7.6,2.4-16.3-0.1-20.9-6.6c-0.3-0.4-0.5-0.8-0.8-1.2&#10;&#9;&#9;&#9;&#9;&#9;&#9;&#9;c-0.6-1-0.1-2.1,0.6-2.7c0.5-0.3,1.1-0.4,1.6-0.2c0.2,0.1,0.5,0.3,0.7,0.6c0.7,1,1.4,1.9,2.3,2.7c3.4,3.3,8,4.9,12.7,4.3&#10;&#9;&#9;&#9;&#9;&#9;&#9;&#9;c0-0.1,0.1-0.2,0.1-0.2c0.2-0.3,0.5-0.5,1-0.5c0.9,0,1.8,0,2.6,0C431,944.3,431.3,947.4,429.5,948z"/>
					</g>
				</g>
				<g id="XMLID_2035_">
					<g id="XMLID_2036_">
						<path fill="#735838" d="M383.2,905.3c-4.4-4.1-9.4-7.1-15.1-9.3c-1.5-0.6-2.5,1.8-1,2.3c5.4,2,10.2,5,14.6,8.8&#10;&#9;&#9;&#9;&#9;&#9;&#9;&#9;C382.9,908.2,384.3,906.3,383.2,905.3L383.2,905.3z"/>
					</g>
				</g>
				<g id="XMLID_2033_">
					<g id="XMLID_2034_">
						<path fill="#735838" d="M374.7,920.9c-3.2-1.4-6.5-2.8-9.8-4c-1.5-0.5-2.4,1.6-0.9,2.2c3.2,1.5,6.5,2.7,9.8,4&#10;&#9;&#9;&#9;&#9;&#9;&#9;&#9;C375.3,923.7,376.2,921.5,374.7,920.9L374.7,920.9z"/>
					</g>
				</g>
				<g id="XMLID_2031_">
					<g id="XMLID_2032_">
						<path fill="#735838" d="M372.4,937c-4.7,0.9-9.1,0.6-13.7-0.3c-1.3-0.3-1.9,1.9-0.6,2.3c4.7,1.4,9.9,1.4,14.7,0.4&#10;&#9;&#9;&#9;&#9;&#9;&#9;&#9;C374.2,939.1,373.9,936.7,372.4,937L372.4,937z"/>
					</g>
				</g>
				<g id="XMLID_2029_">
					<g id="XMLID_2030_">
						<path fill="#735838" d="M470.3,939.4c5.7,0,11.1,1,16.6,2.6c1.4,0.4,2.4-1.6,0.9-2.2c-5.6-2.1-11.6-2.8-17.5-2.7&#10;&#9;&#9;&#9;&#9;&#9;&#9;&#9;C469,937.1,469,939.4,470.3,939.4L470.3,939.4z"/>
					</g>
				</g>
				<g id="XMLID_2027_">
					<g id="XMLID_2028_">
						<path fill="#735838" d="M466.7,959.2c3.8,1.2,7.7,2.5,11.5,3.7c1.5,0.4,2.4-1.7,0.9-2.2c-3.8-1.3-7.7-2.4-11.6-3.6&#10;&#9;&#9;&#9;&#9;&#9;&#9;&#9;C466.2,956.6,465.3,958.8,466.7,959.2L466.7,959.2z"/>
					</g>
				</g>
				<g id="XMLID_2025_">
					<g id="XMLID_2026_">
						<path fill="#735838" d="M456.1,974.2c2.9,3.7,7,6.4,11.8,7c1.6,0.2,1.8-2.1,0.3-2.4c-4.1-0.9-7.5-2.7-10.1-6&#10;&#9;&#9;&#9;&#9;&#9;&#9;&#9;C457.1,971.6,455.2,973,456.1,974.2L456.1,974.2z"/>
					</g>
				</g>
				<g id="XMLID_966_">
					<g id="XMLID_1245_">
						<path fill="#735838" d="M399.4,874.8c3.5-2.6,7-6.4,11.7-3.7c1.9,1.1,3.2,3,3.8,5c0.3,0.9,0.3,1.9,0.3,2.9&#10;&#9;&#9;&#9;&#9;&#9;&#9;&#9;c-0.1,1.1,0.1,2.8-0.1,3.9c-0.4,1.9,1.8,3.4,3.3,1.9c1.6-1.5,2.6-2.2,2.9-4.4c0.3-1.9,0.2-4-0.4-5.9c-1-3.6-3.4-6.8-6.9-8.2&#10;&#9;&#9;&#9;&#9;&#9;&#9;&#9;c-5.6-2.3-16.4,0.1-16.6,7.5C397.5,874.6,398.6,875.4,399.4,874.8L399.4,874.8z"/>
					</g>
				</g>
				<g id="XMLID_1111_">
					<g id="XMLID_1702_">
						<path fill="#735838" d="M469.3,906.8c2.5-3.3,7-5.5,11-3.5c3.9,1.9,5.6,7,4.6,11c-0.4,1.6,1.9,2.6,2.7,1.1&#10;&#9;&#9;&#9;&#9;&#9;&#9;&#9;c3.4-6.1,1.2-14-5.3-17c-6.4-3-14.5,0.2-17,6.7C464.4,907.6,468,908.6,469.3,906.8L469.3,906.8z"/>
					</g>
				</g>
			</g>
			<g id="XMLID_2037_">
				<path fill="#FFFFFF" d="M498.2,1284.3c0,0,25.3-4.5,34,4.2s6,21.5,6,21.5h-55C483.2,1310,478.6,1285.3,498.2,1284.3z"/>
			</g>
		</g><path fill="#FFB300" d="M516.7,1112.3c-1-12.4-2.1-24.8-3.5-37c-0.5-4.9-1.1-9.7-1.7-14.5c-0.4-3.1-1.3-8.4-2.6-15.1&#10;&#9;&#9;&#9;&#9;c-3.9,1.1-7.8,2.1-11.8,3c-8.8,1.8-17.8,3.1-26.9,3.7c1.1,13.7,2.4,27.4,4.4,41.2c3.6,25.1,19.3,47.7,44.5,54.4&#10;&#9;&#9;&#9;&#9;c-0.4-8-0.9-16.1-1.5-24.3C517.3,1119.9,517,1116.1,516.7,1112.3z" transform="matrix(1, 0, 0, 1, 0, 0)"/><path fill="#FFFFFF" d="M474.6,1093.6c-2-13.7-3.3-27.5-4.4-41.2c-46.3,3.3-93.1-9.9-122.8-46.7c-19.9-25.5-32.7-54.3-41-84.6&#10;&#9;&#9;&#9;&#9;c-1.1-1.2-2.2-2.3-3.2-3.5c-19.5-21.4-40.5-46-51-63.7c-22.6-38.1-75-4.6-52.6,48.8c24.3,2,26.2-2.3,26.2-2.3s0.2,0.3,0.6,0.9&#10;&#9;&#9;&#9;&#9;c6.2,8.9,59.8,86.8,75,139.6c19.5,34.9,46.3,65.6,78.8,92.1c22.5,17.8,41.2,38.4,56.1,63.6c3.2,5.3,6.2,10.7,9.1,16.1&#10;&#9;&#9;&#9;&#9;c5.4,7.8,10.5,17.5,15.1,27.6c3.1,6.9,6,14,8.7,20.9c9.7,25.6,15.8,48.8,15.8,48.8h36.2c0,0,1.3-36.7,0.5-87.9&#10;&#9;&#9;&#9;&#9;c-0.1-3.9-0.1-7.9-0.2-12c-0.2-10.9-0.6-22.2-1-34c-0.1-3.4-0.3-6.8-0.4-10.2c-0.3-5.9-0.6-11.9-0.9-18&#10;&#9;&#9;&#9;&#9;C493.9,1141.3,478.2,1118.7,474.6,1093.6z" transform="matrix(1, 0, 0, 1, 0, 0)"/><path fill="#DDDDDD" d="M301.3,1040.7c-15.1-52.8-68.8-130.7-75-139.6c17.2-5,25.8-12.9,25.8-12.9S303.9,979.5,301.3,1040.7z" transform="matrix(1, 0, 0, 1, 0, 0)"/><g id="XMLID_16_" transform="matrix(1, 0, 0, 1, 0, 0)">
				<path fill="#735838" d="M277.9,783.6c-0.7,0-1.5-0.1-2.2-0.3c-36.6-11.4-48.2-33.8-54.5-49.6c-0.1,0-0.2,0-0.3,0&#10;&#9;&#9;&#9;&#9;&#9;c-18.7,0-82.7-1.9-123.6-26.8c-13.6-8.3-25.3-21.7-33-37.9c-8.3-17.2-11.3-35.6-8.7-53.2c3.3-22.2,19-62.2,87.5-80&#10;&#9;&#9;&#9;&#9;&#9;c33-8.6,67.3-13.1,99.4-13.1c58.4,0,103.7,14.7,127.3,41.3c14.7,16.6,20.7,37,17.9,60.8c-4.7,39.5-27.6,70.2-66.2,88.6&#10;&#9;&#9;&#9;&#9;&#9;c-20.5,9.8-40.1,13.6-50,15c-0.3,13.5,2.3,22.9,13.2,44.3c1.4,2.7,1,5.9-0.9,8.2C282.1,782.7,280,783.6,277.9,783.6z"/>
			</g><path fill="#735838" d="M242.4,530.1c80.2,0,145.5,28.9,137.8,93.7c-10.7,90.1-116,97.8-116,97.8c-1.3,18.8,0.7,29,13.7,54.5&#10;&#9;&#9;&#9;&#9;&#9;c-36.4-11.3-45.6-34.1-51.6-50.1c0,0-2,0.1-5.4,0.1c-18.6,0-80.5-1.9-119.7-25.7C54.6,672.1,29.6,573.1,144.9,543&#10;&#9;&#9;&#9;&#9;&#9;C177.4,534.6,211,530.1,242.4,530.1 M242.4,515.1c-32.7,0-67.7,4.6-101.3,13.4c-72.7,18.9-89.5,62.1-93,86.2&#10;&#9;&#9;&#9;&#9;&#9;c-2.8,19.1,0.4,39,9.3,57.5c8.4,17.5,21.1,32,35.9,41c18.5,11.2,43.1,19.3,73.1,23.8c20.3,3.1,38.5,3.9,49.7,4.1&#10;&#9;&#9;&#9;&#9;&#9;c7.2,16.3,21.2,38.1,57.3,49.3c1.5,0.5,3,0.7,4.5,0.7c4.3,0,8.6-1.9,11.5-5.3c3.9-4.6,4.6-11.1,1.9-16.5&#10;&#9;&#9;&#9;&#9;&#9;c-8.7-17-11.6-25.7-12.3-34.6c11.3-2.1,28.2-6.3,45.6-14.6c41.1-19.6,65.4-52.3,70.5-94.5c3.1-25.6-3.8-48.7-19.7-66.7&#10;&#9;&#9;&#9;&#9;&#9;C350.2,530.7,303,515.1,242.4,515.1L242.4,515.1z" transform="matrix(1, 0, 0, 1, 0, 0)"/><path fill="#FFFFFF" d="M264.2,721.7c0,0,105.3-7.7,116-97.8S260.3,513,144.9,543s-90.3,129.1-43.8,157.4&#10;&#9;&#9;&#9;&#9;c46.5,28.3,125.1,25.7,125.1,25.7c6,16,15.2,38.7,51.6,50.1C264.9,750.7,262.9,740.5,264.2,721.7z" transform="matrix(1, 0, 0, 1, 0, 0)"/><g id="XMLID_29_" transform="matrix(1, 0, 0, 1, 0, 0)">
				<path fill="#735838" d="M1077.3,377.5c-2.2,0-4.3-0.9-5.7-2.7c-1.9-2.3-2.3-5.6-0.9-8.2c10.9-21.4,13.5-30.8,13.2-44.3&#10;&#9;&#9;&#9;&#9;&#9;c-9.9-1.4-29.5-5.3-50-15c-38.6-18.4-61.5-49.1-66.2-88.6c-2.8-23.8,3.2-44.2,17.9-60.8c23.7-26.6,68.9-41.3,127.3-41.3&#10;&#9;&#9;&#9;&#9;&#9;c32,0,66.4,4.5,99.4,13.1c68.5,17.9,84.2,57.8,87.5,80c2.6,17.6-0.4,36-8.7,53.2c-7.8,16.2-19.5,29.6-33,37.9&#10;&#9;&#9;&#9;&#9;&#9;c-40.9,24.9-104.9,26.8-123.6,26.8c-0.1,0-0.2,0-0.3,0c-6.3,15.8-17.9,38.3-54.5,49.6C1078.8,377.4,1078.1,377.5,1077.3,377.5z"/>
			</g><path fill="#735838" d="M1112.8,124c31.4,0,65,4.4,97.5,12.9c115.3,30,90.3,129.1,43.8,157.4c-39.2,23.9-101.1,25.7-119.7,25.7&#10;&#9;&#9;&#9;&#9;&#9;c-3.5,0-5.4-0.1-5.4-0.1c-6,16-15.2,38.7-51.6,50.1c13-25.5,15-35.7,13.7-54.5c0,0-105.3-7.7-116-97.8&#10;&#9;&#9;&#9;&#9;&#9;C967.3,153,1032.6,124,1112.8,124 M1112.8,109v15V109c-60.6,0-107.8,15.6-132.9,43.8c-16,18-22.8,41-19.7,66.7&#10;&#9;&#9;&#9;&#9;&#9;c5,42.2,29.4,74.9,70.5,94.5c17.4,8.3,34.4,12.5,45.6,14.6c-0.6,8.9-3.6,17.6-12.3,34.6c-2.7,5.4-2,11.9,1.9,16.5&#10;&#9;&#9;&#9;&#9;&#9;c2.9,3.4,7.1,5.3,11.5,5.3c1.5,0,3-0.2,4.5-0.7c36.1-11.2,50.1-33.1,57.3-49.3c11.2-0.2,29.4-1,49.7-4.1&#10;&#9;&#9;&#9;&#9;&#9;c30.1-4.6,54.7-12.6,73.1-23.8c14.8-9,27.5-23.6,35.9-41c8.9-18.6,12.1-38.5,9.3-57.5c-3.5-24.1-20.3-67.2-93-86.2&#10;&#9;&#9;&#9;&#9;&#9;C1180.5,113.6,1145.5,109,1112.8,109L1112.8,109z" transform="matrix(1, 0, 0, 1, 0, 0)"/><path fill="#FFFFFF" d="M1091,315.6c0,0-105.3-7.7-116-97.8s119.9-110.9,235.2-80.8s90.3,129.1,43.8,157.4&#10;&#9;&#9;&#9;&#9;c-46.5,28.3-125.1,25.7-125.1,25.7c-6,16-15.2,38.7-51.6,50.1C1090.3,344.6,1092.3,334.4,1091,315.6z" transform="matrix(1, 0, 0, 1, 0, 0)"/><g id="XMLID_1395_" transform="matrix(1, 0, 0, 1, 0, 0)">
			<path id="XMLID_98_" fill="#735838" d="M611,709.4c5-5,9-11.1,9.5-17.2c0.3-4.2-0.8-8.2-2-12.1c-1-3.2-2.1-6.6-4.6-8.7&#10;&#9;&#9;&#9;&#9;c-2.8-2.4-6.9-2.7-10.7-3c-8-0.5-15.8-0.5-22.4-5.1c-6.1-4.3-9.8-12-17.4-14.1c-9-2.4-19.4,5.4-23,14.9&#10;&#9;&#9;&#9;&#9;c-3.7,9.4-2.2,19.6,0.3,28.8c1,3.6,2.2,7.2,3.8,10.5c4.8,9.7,13.9,16.7,24.4,19.1c10.1,2.3,21.8,0.2,31.5-5.1&#10;&#9;&#9;&#9;&#9;C603.9,715.6,607.6,712.8,611,709.4z"/>
		</g><path id="XMLID_97_" fill="#735838" d="M621.6,668.3c-0.6,3.8,0.5,7.7,4.2,10.8c3.7,3.1,9.3,3.9,13.7,1.7c6.5-3.2,9.3-9.1,8.3-16&#10;&#9;&#9;&#9;&#9;c-0.4-2.7-1.3-5.3-2.9-7.4c-1.6-2.1-4.1-3.7-6.8-3.9c-2-0.1-3.9,0.4-5.7,1.3C627.1,657.3,622.5,662.7,621.6,668.3z" transform="matrix(1, 0, 0, 1, 0, 0)"/><path id="XMLID_96_" fill="#735838" d="M600.4,634.9c1.6-3.6,4.7-6.4,8.2-8.1c1.4-0.7,3-1.3,4.6-1.4c14.5-0.8,16.2,26.1,3.6,28.9&#10;&#9;&#9;&#9;&#9;c-3.8,0.8-7.8,0-11-2.2C600.4,648.5,597.7,640.9,600.4,634.9z" transform="matrix(1, 0, 0, 1, 0, 0)"/><path id="XMLID_95_" fill="#735838" d="M586.3,614.7c-8.6-3.5-17.7,4.1-17.1,12.9c0.3,5,3.6,9.7,8.3,11.4&#10;&#9;&#9;&#9;&#9;C593.2,644.7,599.8,620.2,586.3,614.7z" transform="matrix(1, 0, 0, 1, 0, 0)"/><path id="XMLID_94_" fill="#735838" d="M553.2,621.9c-8.6-3.5-17.7,4.1-17.1,12.9c0.3,5,3.6,9.7,8.3,11.4&#10;&#9;&#9;&#9;&#9;C560.1,651.9,566.7,627.4,553.2,621.9z" transform="matrix(1, 0, 0, 1, 0, 0)"/><g id="XMLID_7_" transform="matrix(1, 0, 0, 1, 0, 0)">
			<g id="XMLID_11_">
				<path fill="#735838" d="M865.7,1106.9L865.7,1106.9c-0.1,0-0.3,0-0.4,0H759.9c-3.9,0-7.1-2.9-7.5-6.7c-1.4-13.4,0.9-23.5,6.8-30&#10;&#9;&#9;&#9;&#9;&#9;c4.6-5.1,11.3-7.8,19.3-7.8c2.6,0,5.3,0.3,7.8,0.7c-6.9-17.8-18.4-49.1-26.8-79.8c-11.8-43.2-13.9-71.3-6.3-86&#10;&#9;&#9;&#9;&#9;&#9;c10.7-20.7,27.7-40.4,36.9-50.3c6.7-7.2,17.7-18.4,25.7-23.5c0.4-4.5,0.8-8.4,1.2-12.1c0.6-5.4,1.2-11.1,2-17.9&#10;&#9;&#9;&#9;&#9;&#9;c0.6-4.9,2-13,3-19c0-0.1,0-0.1,0-0.2c2.1-11.5,4.8-25.7,7.7-39.6c-1.6-0.5-3.2-1.1-4.8-1.7c-33.8-12.2-54.5-28.9-55.4-29.6&#10;&#9;&#9;&#9;&#9;&#9;c-1.6-1.3-2.6-3.2-2.8-5.3c0,0-0.2-2.8-0.5-7.8c-0.2-3.6-0.5-8.4-0.7-14c-0.1-3-0.2-6.3-0.3-9.8l-0.1-4.7&#10;&#9;&#9;&#9;&#9;&#9;c-0.1-2.9-0.1-5.8-0.1-8.8c0-1.8,0-3.7,0-5.6c0-0.1,0-0.2,0-0.3c0-2.9,0-6,0-9.2c-4.1-5.9-8.2-11.8-12.2-17.3&#10;&#9;&#9;&#9;&#9;&#9;c0,0-0.1-0.2-0.1-0.2c-3.1-4.3-6.1-8.5-8.9-12.4l-0.2-0.3c-1.1-1.5-2.3-3.1-3.4-4.6c-19.5,22.2-48.3,38.2-49.6,38.9&#10;&#9;&#9;&#9;&#9;&#9;c-1.1,0.6-2.4,0.9-3.6,0.9c-1.3,0-2.5-0.3-3.6-0.9c-2.3-1.3-3.7-3.6-3.8-6.2c-0.1-1.2-1.5-29.2,0.8-57.9&#10;&#9;&#9;&#9;&#9;&#9;c3.4-42.8,13.3-64.2,30.3-65.3c2-0.1,4.2-0.2,6.5-0.2c23.7,0,58.6,7.2,76.1,11.2c7.2-6.7,16.3-13.5,27.1-20.2&#10;&#9;&#9;&#9;&#9;&#9;c4-2.5,8.2-4.9,12.5-7.2c5.2-2.8,10.6-5.5,16.2-8.1c2.5-1.1,5.1-2.3,8.3-3.6l0.4-0.2c1.6-0.7,3.1-1.3,4.7-1.9&#10;&#9;&#9;&#9;&#9;&#9;c6-2.4,12.1-4.6,18.1-6.6c0.7-0.2,1.4-0.4,2.1-0.7c3.7-19.7,11.7-58.1,22.1-78.4c4.1-8,12.6-12,25.3-12&#10;&#9;&#9;&#9;&#9;&#9;c34.8,0,97.5,30.8,100.2,32.1c2.5,1.2,4.1,3.8,4.2,6.6c0.1,3.3-1.5,6.4-4.6,9.7c-7.7,7.8-28.5,18.7-49.3,21l0.1,0.2&#10;&#9;&#9;&#9;&#9;&#9;c0.6,1.2,1.3,2.4,1.9,3.6l0,0.1c0.7,1.3,1.4,2.6,2,3.8l0.1,0.2c0.6,1.2,1.3,2.5,1.9,3.7c0,0,0,0.1,0.1,0.1&#10;&#9;&#9;&#9;&#9;&#9;c6.8,13.2,13.1,26.3,17.4,35.5c5.3,4.3,10.9,8.9,16.5,13.9c3.3,2.9,6.5,5.7,9.5,8.6c4.1,3.7,8.1,7.5,12.1,11.3&#10;&#9;&#9;&#9;&#9;&#9;c0.9,0.9,1.9,1.8,2.8,2.7c3.2,3.1,6.2,6,8.8,8.6l1.1,1.1c2.3,2.3,4.6,4.6,6.6,6.7c5.3,5.4,9.5,9.8,12,12.6&#10;&#9;&#9;&#9;&#9;&#9;c2.9,3.1,4.6,4.9,4.6,4.9c1.5,1.7,2.2,4,1.8,6.3c-0.1,0.5-1.1,6.8-3.9,16.6c19.4-23.7,33.4-43.2,41.2-57.1&#10;&#9;&#9;&#9;&#9;&#9;c8.6-15.4,21.2-23.8,35.7-23.8c13.1,0,25.9,7.4,34.4,19.8c12.6,18.5,14,44.1,3.7,70.2c-1,2.6-3.5,4.5-6.3,4.7&#10;&#9;&#9;&#9;&#9;&#9;c-5.1,0.5-9.8,0.7-13.9,0.7c-2.8,0-8.8,0-14.1-1.4c-14.1,22.1-66.4,106-82.1,164.1c-0.6,2.2-1.1,4.3-1.6,6.3&#10;&#9;&#9;&#9;&#9;&#9;c-1.1,5-2.1,10.1-3,15.7c-1.2,7.9-2.2,16.3-3,26.2c24.2-13.6,44-34.5,59-62.3c1.1-2.1,3.2-3.5,5.5-3.9c0.4-0.1,0.7-0.1,1.1-0.1&#10;&#9;&#9;&#9;&#9;&#9;c2,0,3.9,0.8,5.3,2.2c21.1,21,8.4,52.5-0.5,68.9l5.3,0.6c2.7,0.3,5.1,2.1,6.2,4.6c1,2.6,0.6,5.5-1.2,7.6l-14.3,17.3&#10;&#9;&#9;&#9;&#9;&#9;c4.8,1.4,5.8,2.9,6.7,4.3c1.3,2,1.6,4.5,0.9,6.8c-1.8,5.5-14.7,14.7-15.2,15.1c-6.1,4.4-15.3,9.9-27.3,14.2c0.4,0.7,0.7,1.3,1,2&#10;&#9;&#9;&#9;&#9;&#9;c8.9,17.3,4.5,53.4-13.5,110.5c-6.9,21.9-14.5,42.3-19.5,55.3c2.5-0.5,5.2-0.7,7.8-0.7c8,0,14.7,2.7,19.3,7.8&#10;&#9;&#9;&#9;&#9;&#9;c5.9,6.5,8.1,16.6,6.8,30c-0.4,3.8-3.6,6.7-7.5,6.7L865.7,1106.9z"/>
			</g>
		</g><path fill="#735838" d="M930,392.5c33.5,0,96.8,31.3,96.8,31.3c0.1,6.5-28.9,23.4-53.8,23.4c-1.8,0-3.5-0.1-5.2-0.3c0,0,0,0,0,0&#10;&#9;&#9;&#9;&#9;s0,0,0,0c0,0,0,0,0,0c0.6,1.1,1.3,2.3,1.9,3.4c0.1,0.1,0.1,0.2,0.2,0.3c0.6,1.1,1.3,2.3,1.9,3.4c0,0,0.1,0.1,0.1,0.1&#10;&#9;&#9;&#9;&#9;c0.6,1.2,1.3,2.4,1.9,3.6c0,0.1,0.1,0.2,0.1,0.3c0.6,1.2,1.3,2.3,1.9,3.5c0,0.1,0.1,0.1,0.1,0.2c0.7,1.2,1.3,2.5,2,3.7&#10;&#9;&#9;&#9;&#9;c0,0,0,0.1,0.1,0.1c0.6,1.2,1.3,2.5,1.9,3.7c0,0,0,0.1,0,0.1c7,13.6,13.5,27.1,18,36.8c5.9,4.7,11.9,9.7,17.6,14.8&#10;&#9;&#9;&#9;&#9;c3.2,2.8,6.3,5.6,9.4,8.4c4.1,3.8,8.1,7.5,12,11.2c0.9,0.9,1.8,1.7,2.7,2.6c3.1,3,6,5.9,8.8,8.6c0.4,0.4,0.8,0.7,1.1,1.1&#10;&#9;&#9;&#9;&#9;c2.3,2.3,4.5,4.5,6.5,6.6c5,5.1,9.1,9.4,12,12.4c2.9,3.1,4.5,4.9,4.5,4.9s-4.1,24.7-17.8,54.7c2.3-2.6,4.6-5.3,7-8c0,0,0,0,0,0&#10;&#9;&#9;&#9;&#9;c1.2-1.4,2.5-2.9,3.7-4.3c22.3-26.1,46.4-56.3,58.4-77.9c7.7-13.9,18.5-20,29.1-20c25,0,49.2,33.8,31.1,79.8&#10;&#9;&#9;&#9;&#9;c-5.3,0.5-9.6,0.7-13.2,0.7c-15.4,0-16.8-3.5-16.8-3.5s-0.2,0.4-0.7,1c-7.1,10.9-68.6,106.2-85.9,170.8c-0.6,2.2-1.1,4.4-1.6,6.5&#10;&#9;&#9;&#9;&#9;c-1.2,5.4-2.2,10.8-3.1,16.3c-2,13.1-3.1,26.5-3.9,39.9c24.5-10.9,52.6-31.7,74-71.3c24.7,24.6-7.8,69.8-7.8,69.8l0.1,0l17,1.8&#10;&#9;&#9;&#9;&#9;l-22.5,27.3c0,0,15.1,1.6,14.5,3.4c-0.5,1.6-17.3,19.8-46.6,27.2c2,3.2,3.9,6.5,5.6,9.9c9.5,18.5-1.3,64.6-14,104.8&#10;&#9;&#9;&#9;&#9;c-11.8,37.4-25.2,69.6-25.2,69.6s10.5-5.3,20.7-5.3c10.7,0,21,5.8,18.6,29.5c-60.4,0-125.9,0-125.9,0c0,0,0,0,0,0h-95.9h-5.4h0&#10;&#9;&#9;&#9;&#9;l0,0c0,0-2.4,0-6.8,0c-10.7,0-33.5,0-63,0c-11.1,0-23.2,0-36,0c-2.4-23.7,7.9-29.5,18.6-29.5c10.2,0,20.7,5.3,20.7,5.3&#10;&#9;&#9;&#9;&#9;s-19.7-47.3-32.4-93.8c-9-33.1-14.5-65.7-6.9-80.6c17.5-34,56.8-71.6,63-72.5c0.5-5.4,1-10.7,1.6-16.1c0.6-6,1.3-11.9,2-17.8&#10;&#9;&#9;&#9;&#9;c0.5-3.8,1.5-10.3,3-18.5c0,0,0,0,0,0c2.3-12.7,5.5-29.3,9.1-46.3c-3.8-1.1-7.4-2.4-10.9-3.6c-33-12-53.2-28.4-53.2-28.4&#10;&#9;&#9;&#9;&#9;s-0.2-2.8-0.5-7.7c-0.2-3.6-0.5-8.3-0.7-13.9c-0.1-3-0.2-6.2-0.3-9.7c0-1.5-0.1-3.1-0.1-4.7c-0.1-2.8-0.1-5.7-0.1-8.6&#10;&#9;&#9;&#9;&#9;c0-1.9,0-3.9,0-5.9l0,0c0-3.7,0-7.6,0.1-11.5c-3.9-5.7-8.6-12.3-13.6-19.3c0,0-0.1-0.1-0.1-0.1c-2.9-4.1-5.9-8.3-9-12.5&#10;&#9;&#9;&#9;&#9;c-0.1-0.1-0.1-0.2-0.2-0.3c-1.4-2-2.9-4-4.4-6c-0.1-0.1-0.2-0.3-0.3-0.4c-1.5-2.1-3-4.1-4.5-6.1c-18,25.1-53.5,44.7-53.5,44.7&#10;&#9;&#9;&#9;&#9;s-6-113.3,24.1-115.3c1.9-0.1,3.9-0.2,6-0.2c25,0,63.7,8.5,78.4,12c7.3-7.4,17.2-14.9,28.7-22c3.9-2.4,7.9-4.7,12.1-7&#10;&#9;&#9;&#9;&#9;c5.1-2.8,10.4-5.4,15.8-7.9c2.7-1.2,5.3-2.4,8-3.6c1.6-0.7,3.3-1.4,4.9-2.1c5.9-2.4,11.8-4.5,17.7-6.4c2.1-0.7,4.2-1.3,6.3-1.9&#10;&#9;&#9;&#9;&#9;c3.1-17.1,11.4-59.7,22.3-80.9C914.2,394.8,921,392.5,930,392.5 M836.3,777.9c2.3,0.6,4.5,1.2,6.8,1.8&#10;&#9;&#9;&#9;&#9;C840.8,779.1,838.5,778.6,836.3,777.9c-2.1-0.6-4.2-1.2-6.3-1.8C832,776.7,834.1,777.3,836.3,777.9 M930,377.5&#10;&#9;&#9;&#9;&#9;C930,377.5,930,377.5,930,377.5c-19.7,0-28.3,8.7-32,16.1c-9.9,19.4-17.6,53.1-22,76.1c-5.5,1.8-11,3.8-16.5,6.1&#10;&#9;&#9;&#9;&#9;c-1.6,0.6-3.2,1.3-4.8,2l-0.4,0.2c-3.3,1.4-6,2.6-8.5,3.8c-5.7,2.6-11.3,5.4-16.6,8.3c-4.4,2.4-8.7,4.9-12.9,7.4&#10;&#9;&#9;&#9;&#9;c-9.8,6-18.3,12.2-25.3,18.4c-18.7-4.2-51.2-10.6-74-10.6c-2.5,0-4.8,0.1-7,0.2c-9.3,0.6-22,6.2-29.7,29.1&#10;&#9;&#9;&#9;&#9;c-3.6,10.8-6.2,25.3-7.6,43.2c-2.3,29.2-0.8,57.7-0.8,58.9c0.3,5.2,3.2,9.8,7.7,12.3c2.3,1.3,4.8,1.9,7.3,1.9&#10;&#9;&#9;&#9;&#9;c2.5,0,5-0.6,7.2-1.9c1.3-0.7,25.6-14.2,45.3-33.8c2.3,3.2,4.7,6.5,7.2,10l0,0l0,0.1c0,0,0,0,0,0c3.5,4.9,7.1,10,10.7,15.3&#10;&#9;&#9;&#9;&#9;c0,2.3,0,4.6,0,6.9c0,0.2,0,0.3,0,0.5c0,1.7,0,3.5,0,5.6c0,3.4,0.1,6.2,0.1,8.8c0,0,0,0.1,0,0.1c0,0.7,0,1.4,0.1,2.1&#10;&#9;&#9;&#9;&#9;c0,0.9,0,1.7,0.1,2.6c0.1,3.5,0.2,6.8,0.3,9.8c0.2,5.6,0.5,10.5,0.7,14.2c0.3,4.9,0.5,7.7,0.5,7.9c0.3,4.1,2.3,7.9,5.5,10.5&#10;&#9;&#9;&#9;&#9;c0.9,0.7,22,17.7,56.2,30.3c-2.4,11.8-4.6,23.5-6.4,33.3c0,0.1,0,0.2-0.1,0.3c-1.1,6.1-2.5,14.3-3.1,19.4c-0.8,6.8-1.5,12.5-2,18&#10;&#9;&#9;&#9;&#9;c-0.3,2.7-0.6,5.5-0.9,8.6c-1.7,1.2-3.5,2.7-5.6,4.6c-5.6,4.8-12,11.1-18.4,18c-9.5,10.2-27,30.5-38.1,52&#10;&#9;&#9;&#9;&#9;c-5.4,10.5-10.7,31.3,5.7,91.4c7,25.7,16.1,51.4,22.9,69.7c-10.9,0.9-17.7,5.9-21.5,10.1c-7.3,8.1-10.3,20.2-8.7,35.8&#10;&#9;&#9;&#9;&#9;c0.8,7.7,7.2,13.5,14.9,13.5h36h63h6.8l5.4,0H967v0c0.1,0,0.1,0,0.2,0h0.6l2.2,0l8.2,0l29.1,0l85.6,0c7.7,0,14.2-5.8,14.9-13.5&#10;&#9;&#9;&#9;&#9;c1.6-15.6-1.4-27.7-8.7-35.8c-3.8-4.3-10.6-9.3-21.5-10.1c4.6-12.3,10.2-28.1,15.6-45c21.6-68.3,20.3-96.4,15.4-110.6&#10;&#9;&#9;&#9;&#9;c9.2-4,16.4-8.5,21.6-12.2c5.1-3.6,8.7-6.9,10.8-9c4.7-4.6,6.3-7.3,7.2-9.9c1.5-4.4,0.9-9.2-1.7-13.2c-0.5-0.8-1-1.5-1.6-2.2&#10;&#9;&#9;&#9;&#9;l8.7-10.6c3.5-4.3,4.4-10.1,2.3-15.2c-1.4-3.5-4-6.2-7.3-7.8c1.3-2.8,2.5-5.9,3.6-9c3.6-10.2,5.2-19.8,4.7-28.6&#10;&#9;&#9;&#9;&#9;c-0.7-12.1-5.4-22.9-13.6-31.1c-2.8-2.8-6.6-4.4-10.6-4.4c-0.7,0-1.5,0.1-2.2,0.2c-4.7,0.7-8.8,3.5-11,7.7&#10;&#9;&#9;&#9;&#9;c-11.6,21.5-26.2,38.6-43.5,51.2c0.4-3.6,0.9-7,1.4-10.4c0.8-5.4,1.8-10.4,2.9-15.2c0.4-1.9,0.9-3.9,1.5-6&#10;&#9;&#9;&#9;&#9;c14.5-53.9,61.4-130.9,78.4-157.7c4.2,0.6,8.1,0.6,10.5,0.6c4.3,0,9.2-0.2,14.5-0.7c5.7-0.5,10.5-4.2,12.6-9.5&#10;&#9;&#9;&#9;&#9;c5.8-14.6,8.1-29,7.1-42.8c-1-12.8-5-24.6-11.6-34.3c-9.9-14.5-25-23.1-40.6-23.1c-17,0-32.4,10.1-42.2,27.7&#10;&#9;&#9;&#9;&#9;c-5.3,9.4-13.6,21.7-24.7,36.2c-0.6-1.2-1.4-2.4-2.3-3.4c-0.1-0.1-1.7-1.9-4.7-5c-2.6-2.7-6.8-7.2-12.1-12.7&#10;&#9;&#9;&#9;&#9;c-1.9-1.9-4-4.1-6.7-6.7l-0.4-0.4l-0.8-0.8c-2.7-2.7-5.7-5.6-8.9-8.7c-0.9-0.9-1.8-1.7-2.7-2.6l-0.1-0.1&#10;&#9;&#9;&#9;&#9;c-4-3.8-8.1-7.7-12.2-11.4c-3.1-2.8-6.3-5.7-9.6-8.6c-5.3-4.6-10.4-9-15.4-13c-4.3-9.1-10.3-21.6-16.8-34.2c0,0,0,0,0,0&#10;&#9;&#9;&#9;&#9;c-0.4-0.8-0.9-1.7-1.3-2.5c18.8-4.3,35.8-13.9,43.1-21.4c4.6-4.7,6.9-9.8,6.8-15.1c-0.1-5.6-3.3-10.7-8.4-13.2&#10;&#9;&#9;&#9;&#9;c-0.7-0.3-16.7-8.2-37-16.2C968.1,383.1,945.7,377.5,930,377.5L930,377.5z" transform="matrix(1, 0, 0, 1, 0, 0)"/><g id="XMLID_1215_" transform="matrix(1, 0, 0, 1, 0, 0)">
			<path fill="#C47700" d="M999.4,873l-2.2,12.5c0,0,36.7,12,75.3,8.1c38.5-3.9,60.8-28,61.4-29.8c0.6-1.8-14.5-3.4-14.5-3.4&#10;&#9;&#9;&#9;&#9;L1142,833l-17-1.8c-7.4,7.4-15.9,13.9-25.7,19.1C1068,867.7,1034,872.7,999.4,873z"/>
		</g><path fill="#D49300" d="M1132.7,761.4c-47.6,88-128.3,83.1-128.3,83.1l-5,28.4c34.6-0.3,68.5-5.3,99.9-22.7&#10;&#9;&#9;&#9;&#9;c9.8-5.2,18.3-11.6,25.7-19.1l-0.1,0C1124.9,831.2,1157.4,786,1132.7,761.4z" transform="matrix(1, 0, 0, 1, 0, 0)"/><path fill="#C98700" d="M1053.6,1075.2c0,0,13.4-32.2,25.2-69.6c12.7-40.2,23.6-86.3,14-104.8c-6.4-12.4-14.6-23.7-23.3-34.4&#10;&#9;&#9;&#9;&#9;c-9.8-12-13.4-18.3-24.6-10.6c-1.1,0.8-2.3,1.7-3.6,2.7c-38.9,31.9-41.1,95.7-51.9,143.1c-0.7,3.1-1.4,6.3-2.2,9.4&#10;&#9;&#9;&#9;&#9;c-6.8,29.5-13.5,58.9-20.3,88.4c0,0,65.5,0,125.9,0C1097.6,1053.1,1053.6,1075.2,1053.6,1075.2z" transform="matrix(1, 0, 0, 1, 0, 0)"/><path fill="#C98700" d="M839.5,930.7l-15.9-102.2c-2.9-3.1-45.3,36.6-63.7,72.3c-7.7,14.9-2.2,47.5,6.9,80.5&#10;&#9;&#9;&#9;&#9;c12.7,46.5,32.4,93.8,32.4,93.8s-43.9-22.1-39.3,24.2c60.4,0,105.8,0,105.8,0L839.5,930.7z" transform="matrix(1, 0, 0, 1, 0, 0)"/><path fill="#C98700" d="M1016.2,674.1L1016.2,674.1c-2-8-3.5-12.7-4.3-13c0,0-30.2-9.3-123.8-3.6c-9.9,0.6-20.4,1.4-31.8,2.3&#10;&#9;&#9;&#9;&#9;c-7.1,17.2-20.6,81.7-26.7,116.1c4.5,1.4,9,2.6,13.6,3.7c10.1,2.2,20.4,3.8,30.8,4.5c53,4,106.7-12.2,140.8-57.2&#10;&#9;&#9;&#9;&#9;c22.8-31.2,37.5-66.4,47-103.5C1037.4,651.7,1016.2,674.1,1016.2,674.1z" transform="matrix(1, 0, 0, 1, 0, 0)"/><path fill="#C98700" d="M936.1,948.1c-45.5,38.1-57.8,94.6-65,151.4h127.7c1.4-3.5,2.9-7.2,4.4-11c2.8-7,5.7-14.5,8.6-22.2&#10;&#9;&#9;&#9;&#9;c9-24,18.2-50.4,25.1-72.3c8.8-28.2,13.3-57.8,17.1-87.4c4.7-37.4,2.9-76.4,8.7-113.6C1037.9,854.9,990,903.5,936.1,948.1z" transform="matrix(1, 0, 0, 1, 0, 0)"/><path fill="#D49300" d="M1123.7,541.3c-12,21.6-36.1,51.8-58.4,77.9c-1.2,1.4-2.5,2.9-3.7,4.3c-9.5,37.1-24.3,72.3-47,103.5&#10;&#9;&#9;&#9;&#9;c-34.1,45-87.7,61.2-140.8,57.2c-10.3-0.8-20.6-2.3-30.8-4.5c-4.6-1.1-9.1-2.4-13.6-3.7c-1.5,8.2-2.5,14.8-3,18.5&#10;&#9;&#9;&#9;&#9;c-0.7,5.9-1.4,11.8-2,17.8c-1.6,14.9-2.9,30.1-4,45.2c-0.3,4.7-0.7,9.4-1,14c-0.7,10-1.2,19.9-1.7,29.7c-0.4,7.4-0.7,14.7-1,22&#10;&#9;&#9;&#9;&#9;c-0.2,4.2-0.3,8.4-0.5,12.5c-0.5,14.4-0.9,28.3-1.1,41.6c-0.1,5-0.2,9.9-0.2,14.7c-0.4,30.4-0.3,56.6-0.1,75.5&#10;&#9;&#9;&#9;&#9;c-4.8,0.9-9.2,2.6-12,5.6c-10,10.6-6.9,26.3-6.9,26.3h63l0,0h6.8h5.4c7.1-56.8,19.4-113.3,65-151.4&#10;&#9;&#9;&#9;&#9;c53.9-44.6,101.8-93.2,126.6-155.2c0.9-5.5,1.9-10.9,3.1-16.3c0.5-2.1,1-4.3,1.6-6.5c17.4-64.6,78.8-159.9,85.9-170.8&#10;&#9;&#9;&#9;&#9;c0.4-0.7,0.7-1,0.7-1s2.1,5.3,30,2.8C1209.7,535.6,1149.7,494.7,1123.7,541.3z" transform="matrix(1, 0, 0, 1, 0, 0)"/><path fill="#C98700" d="M1067.4,770c17.4-64.6,78.8-159.9,85.9-170.8c-19.7-6.1-29.6-15.8-29.6-15.8S1064.4,695.1,1067.4,770z" transform="matrix(1, 0, 0, 1, 0, 0)"/><g id="XMLID_1332_" transform="matrix(1, 0, 0, 1, 0, 0)">
				<path fill="#C98700" d="M801.5,533.6l-5.2,37.2l-11.6,82.5c0,0-22.9-33.9-44.1-62.2c-18,25.1-53.5,44.7-53.5,44.7&#10;&#9;&#9;&#9;&#9;&#9;s-6-113.3,24.1-115.3C741.3,518.4,801.5,533.6,801.5,533.6z"/>
			</g><path fill="#B37800" d="M745.1,579.7c-1.1,3.8-2.6,7.6-4.6,11.4c6.2,8.3,12.5,17,18.4,25.3c2.3-6.7,4.1-13.6,5.2-20.5&#10;&#9;&#9;&#9;&#9;&#9;C757.7,590.6,751.2,585.3,745.1,579.7z" transform="matrix(1, 0, 0, 1, 0, 0)"/><path fill="#C98700" d="M789.9,615.9c-8.5-6.7-17.2-13.3-25.7-20.1c-1.2,6.9-3,13.8-5.2,20.5c14.2,19.9,25.6,36.9,25.6,36.9&#10;&#9;&#9;&#9;&#9;&#9;L789.9,615.9z" transform="matrix(1, 0, 0, 1, 0, 0)"/><path fill="#FFCA5E" d="M763,557.8l-15.2-6c0,0,1.6,13.3-2.7,27.9c6.1,5.6,12.5,10.9,19.1,16.1C766.4,582.9,766.4,570,763,557.8&#10;&#9;&#9;&#9;&#9;&#9;z" transform="matrix(1, 0, 0, 1, 0, 0)"/><path fill="#FFDE7C" d="M796.3,570.8l-33.2-13c3.3,12.2,3.3,25.1,1.2,38c8.5,6.8,17.2,13.3,25.7,20.1L796.3,570.8z" transform="matrix(1, 0, 0, 1, 0, 0)"/><path fill="#C98700" d="M967.7,447C967.7,447,967.8,447,967.7,447c17.6,30.7,36.7,73.4,36.7,73.4l-95.9-26.1l-20.7-5.6&#10;&#9;&#9;&#9;&#9;&#9;c0,0,9.8-61.3,23.5-88.2c13.7-26.9,115.5,23.4,115.5,23.4C1027,430.8,993.7,449.7,967.7,447z" transform="matrix(1, 0, 0, 1, 0, 0)"/><path fill="#FFCA5E" d="M923.3,432.5l-4.3,17.8c10.6,8.4,22.2,14.7,34.4,19.2c-1.3-8.9-2.7-17.8-4.2-26.8&#10;&#9;&#9;&#9;&#9;&#9;C935.7,438.5,923.3,432.5,923.3,432.5z" transform="matrix(1, 0, 0, 1, 0, 0)"/><path fill="#FFDE7C" d="M908.6,494.3l50.4,13.7c-1.8-12.8-3.6-25.7-5.5-38.5c-12.2-4.5-23.8-10.8-34.4-19.2L908.6,494.3z" transform="matrix(1, 0, 0, 1, 0, 0)"/><path fill="#C98700" d="M958.9,508l45.5,12.4c0,0-9.2-20.6-20.7-43.5c-10.4-1.4-20.5-3.8-30.3-7.4&#10;&#9;&#9;&#9;&#9;&#9;C955.3,482.4,957.2,495.2,958.9,508z" transform="matrix(1, 0, 0, 1, 0, 0)"/><path fill="#B37800" d="M967.7,447c-5.7-0.6-12.2-2.2-18.5-4.2c1.5,8.9,2.8,17.8,4.2,26.8c9.8,3.6,20,6,30.3,7.4&#10;&#9;&#9;&#9;&#9;&#9;C978.7,466.9,973.1,456.4,967.7,447C967.8,447,967.7,447,967.7,447z" transform="matrix(1, 0, 0, 1, 0, 0)"/><path fill="#D49300" d="M1072.5,576.8c0,0-5.6,33.8-25.7,70.4c-17.9,32.5-47.2,67.2-94.2,82.2c-27.7,8.8-53.8,10.3-77,7.9&#10;&#9;&#9;&#9;&#9;&#9;c-17.9-1.9-34.1-6.2-48-11.2c-33-12-53.2-28.4-53.2-28.4s-0.2-2.8-0.5-7.7c-0.2-3.6-0.5-8.3-0.7-13.9c-0.1-3-0.2-6.2-0.3-9.7&#10;&#9;&#9;&#9;&#9;&#9;c0-1.5-0.1-3.1-0.1-4.7c-0.1-2.8-0.1-5.7-0.1-8.6c0-1.9,0-3.9,0-5.9l0,0c0-4.1,0-8.3,0.1-12.6c0.1-4.8,0.2-9.8,0.4-14.7&#10;&#9;&#9;&#9;&#9;&#9;c1.3-32.9,5.6-67.1,17.2-81.8c7.3-9.3,19.4-19,34-28c3.9-2.4,7.9-4.7,12.1-7c5.1-2.8,10.4-5.4,15.8-7.9c2.7-1.2,5.3-2.4,8-3.6&#10;&#9;&#9;&#9;&#9;&#9;c1.6-0.7,3.3-1.4,4.9-2.1c5.9-2.4,11.8-4.5,17.7-6.4c4.6-1.5,9.1-2.8,13.6-3.9c17.4-4.5,33.8-6.3,46.7-4.2&#10;&#9;&#9;&#9;&#9;&#9;c19.5,3.2,47.5,23.9,72.5,45.9c3.2,2.8,6.3,5.6,9.4,8.4c4.1,3.8,8.1,7.5,12,11.2c0.9,0.9,1.8,1.7,2.7,2.6c3.1,3,6,5.9,8.8,8.6&#10;&#9;&#9;&#9;&#9;&#9;c0.4,0.4,0.7,0.7,1.1,1.1c2.3,2.3,4.5,4.5,6.5,6.6c5,5.1,9.1,9.4,12,12.4C1070.9,575.1,1072.5,576.8,1072.5,576.8z" transform="matrix(1, 0, 0, 1, 0, 0)"/><path fill="#FFDE7C" d="M1046.8,647.3c-17.9,32.5-47.2,67.2-94.2,82.2c-27.7,8.8-53.8,10.3-77,7.9&#10;&#9;&#9;&#9;&#9;&#9;c-5.5-21.8-15.8-74.8,2.7-109.1c0,0,45.4-21.4,69.4-31.4C981.1,605.4,1024.4,632.3,1046.8,647.3z" transform="matrix(1, 0, 0, 1, 0, 0)"/><path fill="#735838" d="M923.2,636.2c23.8-21,24.6-39.4,24.6-39.4c-17.1-6.2-53.7,3-69.4,31.4&#10;&#9;&#9;&#9;&#9;&#9;C899,637.8,906.5,638.9,923.2,636.2z" transform="matrix(1, 0, 0, 1, 0, 0)"/><g id="XMLID_1348_" transform="matrix(1, 0, 0, 1, 0, 0)">
					<path fill="#735838" d="M922,652.7c0.1,0.1,0.1,0.2,0.2,0.3c5.7,0.8,11.3-1.2,15.5-5.2c1-1,2-2.1,2.8-3.3&#10;&#9;&#9;&#9;&#9;&#9;&#9;c0.2-0.4,0.5-0.6,0.8-0.7c-1.3-0.2-2.5-0.5-3.8-1c-6.3-2.3-11.1-7.1-13.8-13.2c-1-2.2-4.2-0.8-3.4,1.4c0.1,0.4,0.3,0.8,0.4,1.2&#10;&#9;&#9;&#9;&#9;&#9;&#9;c-0.1-1.5,2.2-2.2,3-0.6c1.5,2.8,2.2,5.9,2.3,9C926,644.9,924.7,649.2,922,652.7z"/>
				</g><path fill="#735838" d="M940.4,644.4c-0.8,1.2-1.8,2.3-2.8,3.3c0.8,0.3,1.7,0.5,2.6,0.6c0.9,0.2,1.8,0.3,2.8,0.3&#10;&#9;&#9;&#9;&#9;&#9;&#9;c7.5,0.2,16.9-3.7,15.2-12.5c-0.3-1.5-2.8-2.2-3.3-0.5c-1.8,5.9-6.4,8.4-11.7,8.2c-0.6,0-1.3-0.1-2-0.2&#10;&#9;&#9;&#9;&#9;&#9;&#9;C940.9,643.8,940.6,644.1,940.4,644.4z" transform="matrix(1, 0, 0, 1, 0, 0)"/><path fill="#544130" d="M920.6,632.1c1.2,3.2,3,6,5.3,8.4c0-3.1-0.8-6.2-2.3-9C922.9,630,920.6,630.6,920.6,632.1z" transform="matrix(1, 0, 0, 1, 0, 0)"/><g id="XMLID_1342_" transform="matrix(1, 0, 0, 1, 0, 0)">
					<path fill="#735838" d="M897.3,657.2c5.4,4.6,14.2,3.3,20.2-0.5c0.4-0.3,0.9-0.6,1.3-0.9c0.6-0.4,1.1-0.9,1.6-1.3&#10;&#9;&#9;&#9;&#9;&#9;&#9;c0.5-0.5,1-1,1.5-1.6c0.1-0.1,0.1-0.2,0.2-0.3c2.7-3.5,4-7.8,4-12.1c0-3.1-0.8-6.2-2.3-9c-0.8-1.6-3.1-0.9-3,0.6&#10;&#9;&#9;&#9;&#9;&#9;&#9;c0,0.2,0,0.4,0.1,0.6c2.7,6.6,1.6,14.6-4,19.3c-5.6,4.8-11.7,3.5-18.2,2.2C896.8,653.9,896.1,656.2,897.3,657.2z"/>
				</g><g id="XMLID_1340_" transform="matrix(1, 0, 0, 1, 0, 0)">
					<path fill="#735838" d="M916.9,656.6c0.2,0.1,0.4,0.1,0.6,0.2c9.3,3,19.9-0.1,25.5-8.1c0.3-0.5,0.7-1,1-1.5&#10;&#9;&#9;&#9;&#9;&#9;&#9;c0.7-1.3,0.2-2.6-0.8-3.2c-0.6-0.4-1.3-0.5-2-0.2c-0.3,0.1-0.6,0.4-0.8,0.7c-0.8,1.2-1.8,2.3-2.8,3.3c-4.1,4-9.8,6-15.5,5.2&#10;&#9;&#9;&#9;&#9;&#9;&#9;c0-0.1-0.1-0.2-0.2-0.3c-0.2-0.4-0.6-0.6-1.2-0.6c-1.1,0-2.1,0-3.2,0C915.1,652,914.7,655.8,916.9,656.6z"/>
				</g><g id="XMLID_1274_" transform="matrix(1, 0, 0, 1, 0, 0)">
					<path fill="#735838" d="M955.8,565.7c-1-8.6-13-11.6-19.8-8.6c-4,1.8-6.8,5.5-8,9.7c-0.6,2.1-0.7,4.3-0.5,6.5&#10;&#9;&#9;&#9;&#9;&#9;&#9;c0.3,2.6,1.5,3.7,3.3,5.6c1.4,1.5,3.8-0.1,3.3-1.9c-1.3-5.1-0.4-11.8,4.5-14.7c5.9-3.6,10.8,0.6,15.1,4.4&#10;&#9;&#9;&#9;&#9;&#9;&#9;C954.3,567.2,955.9,566.8,955.8,565.7L955.8,565.7z"/>
				</g><g id="XMLID_1263_" transform="matrix(1, 0, 0, 1, 0, 0)">
					<path fill="#735838" d="M872.3,603.7c-3.2-7.5-13.1-10.7-20.3-7.1c-7.5,3.7-9.9,12.8-6.1,20c0.8,1.5,3.2,0.5,2.7-1.1&#10;&#9;&#9;&#9;&#9;&#9;&#9;c-1.4-5.2,0.8-11.7,5.8-14.1c5.2-2.6,11,0.2,14.1,4.6C870.2,608.2,873.4,606.3,872.3,603.7L872.3,603.7z"/>
				</g>
</svg>